<svg width="960" height="960" xmlns="http://www.w3.org/2000/svg" fill="#000000">

 <g>
  <title>Layer 1</title>
  <path id="svg_1" d="m239,56l57,-56l343,343q23,23 23,57t-23,57l-190,190q-23,23 -57,23t-57,-23l-190,-190q-23,-23 -23,-57t23,-57l190,-191l-96,-96zm153,153l-191,191l382,0l-191,-191zm360,471q-33,0 -56.5,-23.5t-23.5,-56.5q0,-21 12.5,-45t27.5,-45q9,-12 19,-25t21,-25q11,12 21,25t19,25q15,21 27.5,45t12.5,45q0,33 -23.5,56.5t-56.5,23.5zm-680,280l0,-160l386,1l0,160l-386,-1z" opacity="undefined"/>
  <rect id="svg_16" height="82.89035" width="82.89035" y="800.58752" x="455.74678"/>
  <rect id="svg_17" height="82.89035" width="82.89035" y="878.40296" x="526.79565"/>
  <rect id="svg_18" height="82.89035" width="82.89035" y="800.58752" x="604.61109"/>
  <rect id="svg_19" height="82.89035" width="82.89035" y="878.40295" x="685.80979"/>
  <rect id="svg_20" height="82.89035" width="82.89035" y="802.27916" x="760.24193"/>
 </g>
</svg>